<?xml version="1.0" standalone="no"?>
<!DOCTYPE svg PUBLIC "-//W3C//DTD SVG 20010904//EN"
 "http://www.w3.org/TR/2001/REC-SVG-20010904/DTD/svg10.dtd">
<svg version="1.0" xmlns="http://www.w3.org/2000/svg"
 width="700.000000pt" height="700.000000pt" viewBox="0 0 700.000000 700.000000"
 preserveAspectRatio="xMidYMid meet">
<metadata>
Created by potrace 1.14, written by Peter Selinger 2001-2017
</metadata>
<g transform="translate(0.000000,700.000000) scale(0.100000,-0.100000)"
fill="#000000" stroke="none">
<path d="M2329 6686 c-2 -2 -69 -7 -148 -10 -79 -4 -147 -8 -150 -10 -3 -3
-33 -7 -65 -11 -52 -5 -158 -24 -221 -39 -169 -39 -274 -72 -426 -132 -197
-77 -471 -231 -584 -327 -275 -233 -471 -562 -535 -897 -6 -30 -14 -68 -17
-85 -10 -51 -12 -506 -2 -575 5 -36 12 -83 15 -105 9 -64 70 -295 93 -354 98
-246 272 -484 476 -651 72 -58 257 -190 310 -220 17 -10 62 -37 100 -60 104
-64 313 -171 460 -235 269 -118 372 -166 595 -279 277 -140 325 -170 412 -256
100 -100 131 -163 135 -273 6 -227 -125 -372 -408 -449 -74 -20 -107 -23 -274
-23 -166 0 -357 9 -412 19 -10 2 -40 7 -68 10 -27 4 -77 11 -110 17 -33 6 -71
13 -85 15 -14 2 -40 8 -58 13 -18 5 -35 10 -37 10 -68 -1 -566 149 -730 220
-11 5 -72 30 -135 56 -63 27 -163 72 -222 101 -88 43 -108 49 -109 36 0 -9 -1
-344 -2 -743 l-2 -726 85 -38 c149 -67 267 -113 393 -155 122 -41 353 -104
415 -115 17 -3 46 -7 62 -10 35 -6 68 -11 130 -20 25 -4 56 -8 70 -10 14 -2
52 -7 85 -10 33 -3 74 -8 90 -10 153 -19 724 -27 899 -12 116 9 278 33 396 58
87 19 284 72 320 86 8 3 20 7 25 8 6 2 60 22 120 44 324 122 590 306 805 556
187 218 332 508 385 770 35 174 40 236 40 455 -1 221 -3 242 -50 460 -25 116
-137 366 -221 490 -90 135 -339 367 -544 508 -41 28 -79 55 -85 59 -69 54
-291 167 -495 253 -351 147 -631 288 -945 473 -144 86 -201 140 -245 233 -30
62 -34 78 -34 154 0 103 21 157 91 231 87 93 268 159 443 162 89 1 271 -9 315
-17 11 -2 43 -7 70 -10 362 -47 748 -159 1074 -313 86 -40 117 -50 123 -41 4
7 30 72 58 143 28 72 55 139 60 150 5 11 75 187 155 390 80 204 166 420 190
480 l44 110 -52 23 c-187 84 -491 194 -672 243 -92 25 -269 68 -309 74 -17 3
-38 8 -46 10 -51 14 -371 61 -475 70 -44 3 -94 8 -111 10 -17 3 -122 7 -235
10 -112 4 -206 8 -210 10 -3 3 -8 3 -10 1z"/>
<path d="M5919 1936 c-2 -2 -35 -6 -74 -9 -127 -10 -223 -37 -340 -94 -156
-77 -258 -175 -328 -318 -66 -133 -82 -214 -80 -410 1 -151 17 -231 72 -350
62 -132 155 -235 278 -305 172 -99 298 -132 518 -136 251 -4 395 32 568 143
150 96 249 238 301 433 23 85 25 108 22 259 -3 154 -5 172 -33 257 -17 49 -41
107 -52 128 -25 44 -53 89 -61 96 -3 3 -18 22 -34 43 -66 89 -240 188 -406
231 -69 18 -122 24 -213 25 -66 1 -124 4 -127 6 -4 3 -9 3 -11 1z"/>
</g>
</svg>
