<svg width="300" height="300" viewBox="0 0 300 300" fill="none" xmlns="http://www.w3.org/2000/svg">
<path d="M190.641 201.745C190.894 217.244 186.549 232.47 178.155 245.502C169.263 258.641 156.771 268.938 142.175 275.158C124.74 282.532 105.943 286.138 87.0162 285.74C72.1601 285.948 57.3191 284.707 42.7036 282.036C29.8191 279.176 17.3166 274.807 5.45459 269.02V205.316C18.9996 212.278 33.2406 217.794 47.9417 221.771C61.1407 225.421 74.752 227.368 88.4447 227.565C96.5946 228.192 104.74 226.299 111.778 222.142C114.084 220.545 115.965 218.409 117.256 215.919C118.547 213.429 119.21 210.66 119.186 207.856C119.259 204.468 118.177 201.155 116.117 198.464C113.506 195.089 110.251 192.265 106.54 190.157C95.1442 183.893 83.4357 178.216 71.4605 173.146C57.5494 167.302 44.4728 159.643 32.5712 150.368C24.3588 143.476 17.8034 134.823 13.3912 125.051C9.06847 114.315 6.98006 102.811 7.25355 91.2409C6.74101 80.317 8.87938 69.4312 13.4861 59.5129C18.0929 49.5945 25.0312 40.9382 33.7088 34.2827C55.1593 19.5217 80.9155 12.3263 106.911 13.8328C135.849 14.1841 164.385 20.6576 190.641 32.8277L168.763 87.9869C148.818 77.8548 126.954 72.0576 104.609 70.9762C97.5046 70.4009 90.4028 72.1161 84.3442 75.8704C82.3917 77.2309 80.797 79.0432 79.6961 81.1529C78.5952 83.2626 78.0206 85.6072 78.0214 87.9869C78.1441 90.77 78.928 93.4838 80.3082 95.9037C81.6884 98.3235 83.625 100.38 85.9579 101.902C99.9343 110.514 114.565 118.015 129.715 124.336C148.039 131.298 164.366 142.664 177.255 157.432C186.546 170.291 191.259 185.893 190.641 201.745V201.745Z" fill="#0D3E62"/>
<path d="M218.364 252.007C218.066 247.277 218.783 242.538 220.467 238.108C222.151 233.677 224.762 229.658 228.126 226.319C236.23 219.79 246.5 216.558 256.882 217.271C266.872 216.603 276.73 219.848 284.369 226.319C287.682 229.687 290.247 233.716 291.897 238.142C293.547 242.568 294.246 247.293 293.946 252.007C294.207 256.722 293.454 261.438 291.738 265.837C290.022 270.236 287.383 274.217 283.999 277.51C276.462 283.905 266.749 287.145 256.882 286.558C246.687 287.132 236.64 283.909 228.681 277.51C225.18 274.289 222.438 270.33 220.653 265.919C218.869 261.509 218.087 256.757 218.364 252.007V252.007Z" fill="#5095F0"/>
</svg>
