<svg width="84" height="18" viewBox="0 0 84 18" fill="none" xmlns="http://www.w3.org/2000/svg">
<path d="M12.1901 12.4132C12.2067 13.4334 11.9207 14.4357 11.3681 15.2935C10.7828 16.1585 9.96054 16.8363 8.99977 17.2457C7.85205 17.7311 6.61473 17.9684 5.36887 17.9423C4.39095 17.956 3.41403 17.8743 2.45195 17.6985C1.60382 17.5102 0.780828 17.2226 0 16.8417V12.6483C0.891614 13.1066 1.82904 13.4697 2.79676 13.7315C3.66559 13.9717 4.56157 14.0999 5.4629 14.1128C5.99938 14.1541 6.53557 14.0295 6.99886 13.7558C7.15066 13.6508 7.27446 13.5101 7.35945 13.3462C7.44444 13.1823 7.48804 13.0001 7.48646 12.8155C7.49129 12.5924 7.42004 12.3744 7.28445 12.1973C7.11257 11.9751 6.89829 11.7892 6.65405 11.6504C5.9039 11.2381 5.13318 10.8644 4.3449 10.5307C3.42919 10.146 2.56841 9.64184 1.78498 9.03131C1.24439 8.57759 0.81287 8.00799 0.522433 7.36475C0.237887 6.65807 0.100415 5.9008 0.118418 5.13919C0.0846796 4.42011 0.22544 3.70355 0.528684 3.05066C0.831928 2.39778 1.28865 1.82797 1.85986 1.38987C3.27186 0.418208 4.96728 -0.0554333 6.67843 0.0437327C8.58331 0.0668547 10.4617 0.492982 12.1901 1.29409L10.7499 4.92499C9.43966 4.25922 8.00356 3.87764 6.53563 3.80525C6.06799 3.76738 5.6005 3.88028 5.20169 4.12741C5.07316 4.21697 4.96819 4.33626 4.89573 4.47514C4.82326 4.61401 4.78543 4.76835 4.78548 4.92499C4.79356 5.10819 4.84517 5.28683 4.93602 5.44612C5.02687 5.60541 5.15435 5.74077 5.30792 5.84099C6.22793 6.40782 7.191 6.90158 8.18826 7.31774C9.39129 7.77721 10.4629 8.52534 11.3089 9.49628C11.9205 10.3427 12.2307 11.3697 12.1901 12.4132ZM29.7491 17.6985H24.4394L21.0001 11.0444L19.6069 11.8786V17.6985H14.8806V0.2945H19.6069V7.8541C20.0387 7.08213 20.5198 6.33874 21.0471 5.62854L24.7041 0.296242H29.8466L24.3558 8.09094L29.7491 17.6985ZM47.9262 8.9721C48.0984 11.393 47.3264 13.7865 45.7721 15.6505C44.9388 16.4515 43.9467 17.0688 42.8599 17.4623C41.7731 17.8559 40.6158 18.017 39.4628 17.9353C38.3133 18.0108 37.1607 17.8456 36.0788 17.45C34.9969 17.0545 34.0094 16.4374 33.1797 15.6383C31.6115 13.7761 30.8301 11.3763 31.0012 8.94772C30.8333 6.53963 31.6104 4.1609 33.1675 2.31631C34.0025 1.51405 34.9961 0.895394 36.0845 0.500107C37.1729 0.104819 38.332 -0.0583481 39.4872 0.021094C40.6375 -0.0613516 41.7923 0.0984684 42.877 0.490226C43.9617 0.881983 44.9521 1.49696 45.7843 2.29542C47.3333 4.16107 48.1008 6.55349 47.9262 8.9721ZM35.9503 8.9721C35.9503 12.3389 37.1212 14.0223 39.4628 14.0223C39.9706 14.0598 40.4797 13.9676 40.9421 13.7544C41.4045 13.5411 41.8051 13.2139 42.1063 12.8033C42.772 11.6454 43.0753 10.3145 42.977 8.98255C43.0761 7.64145 42.7691 6.30159 42.0959 5.13745C41.804 4.72276 41.4105 4.39 40.9531 4.17106C40.4957 3.95212 39.9898 3.85434 39.4837 3.88709C37.1281 3.88013 35.9503 5.57513 35.9503 8.9721ZM51.0695 17.6985V0.2945H55.7714V13.9004H62.4742V17.6985H51.0695ZM76.6409 12.4132C76.6575 13.4334 76.3715 14.4357 75.8189 15.2935C75.2336 16.1585 74.4113 16.8363 73.4505 17.2457C72.3028 17.7311 71.0655 17.9684 69.8196 17.9423C68.8417 17.9559 67.8648 17.8743 66.9027 17.6985C66.0546 17.5101 65.2316 17.2226 64.4508 16.8417V12.6483C65.343 13.1066 66.281 13.4697 67.2493 13.7315C68.1181 13.9717 69.0141 14.0999 69.9154 14.1128C70.4519 14.1541 70.9881 14.0295 71.4514 13.7558C71.6032 13.6508 71.727 13.5101 71.812 13.3462C71.897 13.1823 71.9406 13.0001 71.939 12.8155C71.9438 12.5924 71.8726 12.3744 71.737 12.1973C71.5651 11.9751 71.3508 11.7892 71.1066 11.6504C70.3564 11.2381 69.5857 10.8644 68.7974 10.5307C67.8817 10.146 67.0209 9.6418 66.2375 9.03131C65.6969 8.57759 65.2654 8.00799 64.975 7.36475C64.6905 6.65806 64.553 5.90079 64.5709 5.13919C64.5372 4.42011 64.678 3.70355 64.9812 3.05066C65.2844 2.39778 65.7412 1.82797 66.3124 1.38987C67.7239 0.418582 69.4186 -0.0550413 71.1292 0.0437327C73.0341 0.0668021 74.9125 0.492932 76.6409 1.29409L75.2007 4.92499C73.8904 4.25922 72.4543 3.87764 70.9864 3.80525C70.5188 3.76738 70.0513 3.88028 69.6525 4.12741C69.5239 4.21697 69.419 4.33626 69.3465 4.47514C69.274 4.61401 69.2362 4.76835 69.2363 4.92499C69.2443 5.10819 69.2959 5.28683 69.3868 5.44612C69.4776 5.60541 69.6051 5.74077 69.7587 5.84099C70.6787 6.40786 71.6418 6.90162 72.639 7.31774C73.8421 7.77721 74.9137 8.52534 75.7597 9.49628C76.3712 10.3427 76.6815 11.3697 76.6409 12.4132Z" fill="#0A304B"/>
<path d="M78.4721 15.7216C78.4525 15.4103 78.4997 15.0983 78.6105 14.8067C78.7214 14.515 78.8933 14.2505 79.1147 14.0307C79.6481 13.6009 80.3242 13.3882 81.0076 13.4351C81.6652 13.3911 82.3141 13.6047 82.817 14.0307C83.035 14.2524 83.2039 14.5176 83.3125 14.8089C83.4211 15.1003 83.4671 15.4113 83.4474 15.7216C83.4645 16.032 83.415 16.3424 83.302 16.632C83.1891 16.9216 83.0154 17.1836 82.7926 17.4004C82.2964 17.8211 81.6571 18.0344 81.0076 17.9959C80.3365 18.0338 79.6751 17.8216 79.1512 17.4004C78.9208 17.1883 78.7403 16.9277 78.6228 16.6374C78.5054 16.3471 78.4539 16.0343 78.4721 15.7216V15.7216Z" fill="#5095F0"/>
</svg>
